<?xml version="1.0" encoding="UTF-8"?>
<svg id="Capa_1" xmlns="http://www.w3.org/2000/svg" viewBox="0 0 1000 180">
  <defs>
    <style>
      .cls-1 {
        fill: #2464a3;
      }
    </style>
  </defs>
  <g>
    <polygon class="cls-1" points="22.84 179.07 0 179.07 102.84 .93 159.99 99.89 137.13 99.89 102.84 40.51 22.84 179.07"/>
    <polygon class="cls-1" points="102.84 80.11 45.7 179.07 205.71 179.07 171.41 119.67 125.7 119.67 114.28 139.48 159.99 139.49 171.41 159.26 80 159.26 114.27 99.89 102.84 80.11"/>
  </g>
  <g>
    <path d="M253.26,119.71v-50.48h32.96v8.9h-23.42v10.8h19.21v8.9h-19.21v12.97h23.42v8.9h-32.96Z"/>
    <path d="M314.19,120.77c-5.05,0-9.4-1.1-13.06-3.3-3.66-2.2-6.48-5.27-8.45-9.22-1.97-3.95-2.96-8.54-2.96-13.78s.99-9.83,2.96-13.78c1.97-3.95,4.79-7.02,8.45-9.22,3.66-2.2,8.01-3.3,13.06-3.3s9.4,1.1,13.06,3.3c3.66,2.2,6.47,5.27,8.45,9.22,1.98,3.95,2.97,8.54,2.97,13.78s-.99,9.83-2.97,13.78c-1.97,3.95-4.79,7.02-8.45,9.22-3.66,2.2-8.01,3.3-13.06,3.3ZM314.19,111.79c3.2.05,5.87-.64,7.99-2.07,2.13-1.43,3.72-3.45,4.79-6.07,1.06-2.62,1.59-5.68,1.59-9.18s-.53-6.54-1.59-9.12c-1.07-2.57-2.66-4.57-4.79-5.99-2.13-1.43-4.79-2.16-7.99-2.21-3.2-.05-5.87.64-7.99,2.07-2.12,1.43-3.72,3.45-4.78,6.07-1.07,2.62-1.6,5.68-1.6,9.19s.53,6.54,1.6,9.12c1.06,2.57,2.66,4.57,4.78,5.99,2.13,1.43,4.79,2.16,7.99,2.21ZM332,120.77l-14.72-14.66,5.89-5.89,14.65,14.65-5.82,5.89Z"/>
    <path d="M366.22,120.77c-4.07,0-7.65-.82-10.73-2.47-3.08-1.65-5.49-3.97-7.22-6.96-1.73-2.99-2.6-6.51-2.6-10.55v-31.48l9.68-.07v31.48c0,1.66.28,3.17.84,4.52.56,1.36,1.34,2.52,2.33,3.51.99.98,2.15,1.73,3.47,2.26,1.32.53,2.73.79,4.23.79s2.97-.27,4.29-.81c1.32-.54,2.47-1.3,3.45-2.28.98-.98,1.75-2.15,2.3-3.51s.82-2.85.82-4.49v-31.48h9.68v31.55c0,4.05-.87,7.56-2.6,10.55-1.73,2.99-4.14,5.31-7.22,6.96-3.09,1.65-6.66,2.47-10.73,2.47Z"/>
    <path d="M397.29,119.71v-50.48h9.53v50.48h-9.53Z"/>
    <path d="M417.34,119.71v-50.48h21.32c.49,0,1.15.02,1.98.05.83.03,1.57.11,2.23.23,3.01.47,5.49,1.46,7.41,2.98,1.93,1.52,3.35,3.43,4.26,5.73s1.37,4.87,1.37,7.69-.46,5.4-1.39,7.7-2.35,4.21-4.28,5.73c-1.93,1.52-4.39,2.51-7.38,2.98-.66.09-1.4.17-2.24.21-.84.05-1.5.07-1.96.07h-11.78v17.11h-9.53ZM426.87,93.7h11.36c.49,0,1.03-.02,1.61-.07.58-.05,1.12-.14,1.61-.28,1.28-.35,2.28-.94,2.98-1.77.7-.83,1.19-1.75,1.46-2.77s.41-1.98.41-2.89-.14-1.87-.41-2.89c-.27-1.02-.75-1.94-1.46-2.77-.7-.83-1.69-1.42-2.98-1.77-.49-.14-1.03-.23-1.61-.28-.59-.05-1.12-.07-1.61-.07h-11.36v15.57Z"/>
    <path d="M484.58,120.77c-5.05,0-9.4-1.1-13.06-3.3-3.66-2.2-6.48-5.27-8.45-9.22-1.97-3.95-2.96-8.54-2.96-13.78s.99-9.83,2.96-13.78c1.97-3.95,4.79-7.02,8.45-9.22,3.66-2.2,8.01-3.3,13.06-3.3s9.4,1.1,13.06,3.3,6.47,5.27,8.45,9.22c1.98,3.95,2.97,8.54,2.97,13.78s-.99,9.83-2.97,13.78c-1.97,3.95-4.79,7.02-8.45,9.22s-8.01,3.3-13.06,3.3ZM484.58,111.79c3.2.05,5.87-.64,7.99-2.07,2.13-1.43,3.72-3.45,4.79-6.07,1.06-2.62,1.59-5.68,1.59-9.18s-.53-6.54-1.59-9.12c-1.07-2.57-2.66-4.57-4.79-5.99-2.13-1.43-4.79-2.16-7.99-2.21-3.2-.05-5.87.64-7.99,2.07-2.12,1.43-3.72,3.45-4.78,6.07-1.07,2.62-1.6,5.68-1.6,9.19s.53,6.54,1.6,9.12c1.06,2.57,2.66,4.57,4.78,5.99,2.13,1.43,4.79,2.16,7.99,2.21Z"/>
    <path d="M535.13,120.77c-3.74,0-7.11-.66-10.11-1.98-3-1.32-5.47-3.21-7.4-5.68-1.93-2.47-3.15-5.41-3.66-8.82l9.95-1.47c.7,2.9,2.15,5.13,4.35,6.7,2.2,1.57,4.7,2.35,7.5,2.35,1.56,0,3.09-.25,4.56-.74s2.68-1.21,3.63-2.17c.95-.96,1.42-2.14,1.42-3.54,0-.51-.08-1.01-.23-1.49-.15-.48-.41-.93-.75-1.35-.35-.42-.85-.82-1.5-1.19-.64-.37-1.46-.71-2.44-1.02l-13.11-3.86c-.99-.28-2.12-.68-3.42-1.19-1.3-.52-2.55-1.25-3.77-2.21-1.22-.96-2.23-2.23-3.03-3.8-.81-1.58-1.21-3.57-1.21-5.98,0-3.39.85-6.21,2.56-8.45,1.71-2.25,3.98-3.91,6.84-5.02,2.85-1.1,6.01-1.63,9.47-1.61,3.48.05,6.59.64,9.32,1.79,2.74,1.14,5.03,2.81,6.88,5,1.84,2.19,3.18,4.86,3.99,8.01l-10.31,1.75c-.38-1.63-1.07-3.02-2.07-4.14s-2.2-1.97-3.59-2.56c-1.39-.58-2.84-.9-4.37-.95-1.5-.05-2.9.16-4.22.61-1.32.46-2.4,1.12-3.22,1.98-.83.86-1.24,1.89-1.24,3.08,0,1.1.34,1.99,1.02,2.68.68.69,1.53,1.24,2.56,1.67,1.03.42,2.08.77,3.16,1.05l8.76,2.39c1.31.35,2.76.81,4.35,1.38,1.59.57,3.12,1.37,4.58,2.39s2.66,2.35,3.61,4.01c.95,1.66,1.42,3.76,1.42,6.31,0,2.71-.57,5.08-1.7,7.1-1.14,2.02-2.66,3.69-4.58,5.01-1.92,1.32-4.09,2.31-6.5,2.96-2.42.65-4.91.98-7.49.98Z"/>
    <path d="M589.47,119.71v-20.54l-17.25-29.94h11.15l10.94,19,10.94-19h11.14l-17.24,29.94v20.54h-9.68Z"/>
    <path d="M651.59,120.77c-3.74,0-7.11-.66-10.11-1.98-3-1.32-5.47-3.21-7.4-5.68-1.93-2.47-3.15-5.41-3.66-8.82l9.95-1.47c.7,2.9,2.15,5.13,4.35,6.7,2.2,1.57,4.7,2.35,7.5,2.35,1.56,0,3.09-.25,4.56-.74s2.68-1.21,3.63-2.17c.95-.96,1.42-2.14,1.42-3.54,0-.51-.08-1.01-.23-1.49-.15-.48-.41-.93-.75-1.35-.35-.42-.85-.82-1.5-1.19-.64-.37-1.46-.71-2.44-1.02l-13.11-3.86c-.99-.28-2.12-.68-3.42-1.19-1.3-.52-2.55-1.25-3.77-2.21-1.22-.96-2.23-2.23-3.03-3.8-.81-1.58-1.21-3.57-1.21-5.98,0-3.39.85-6.21,2.56-8.45,1.71-2.25,3.98-3.91,6.84-5.02,2.85-1.1,6.01-1.63,9.47-1.61,3.48.05,6.59.64,9.32,1.79,2.74,1.14,5.03,2.81,6.88,5,1.84,2.19,3.18,4.86,3.99,8.01l-10.31,1.75c-.38-1.63-1.07-3.02-2.07-4.14s-2.2-1.97-3.59-2.56c-1.39-.58-2.84-.9-4.37-.95-1.5-.05-2.9.16-4.22.61-1.32.46-2.4,1.12-3.22,1.98-.83.86-1.24,1.89-1.24,3.08,0,1.1.34,1.99,1.02,2.68.68.69,1.53,1.24,2.56,1.67,1.03.42,2.08.77,3.16,1.05l8.76,2.39c1.31.35,2.76.81,4.35,1.38,1.59.57,3.12,1.37,4.58,2.39s2.66,2.35,3.61,4.01c.95,1.66,1.42,3.76,1.42,6.31,0,2.71-.57,5.08-1.7,7.1-1.14,2.02-2.66,3.69-4.58,5.01-1.92,1.32-4.09,2.31-6.5,2.96-2.42.65-4.91.98-7.49.98Z"/>
    <path d="M679.57,119.71v-50.48h32.96v8.9h-23.42v10.8h19.21v8.9h-19.21v12.97h23.42v8.9h-32.96Z"/>
    <path d="M720.94,119.71v-50.48h21.32c.49,0,1.15.02,1.98.05.83.03,1.57.11,2.23.23,3.01.47,5.49,1.46,7.41,2.98,1.93,1.52,3.35,3.43,4.26,5.73.91,2.3,1.37,4.87,1.37,7.69,0,4.23-1.06,7.85-3.16,10.85-2.11,3-5.4,4.85-9.89,5.55l-4.21.28h-11.78v17.11h-9.53ZM730.47,93.7h11.36c.49,0,1.03-.02,1.61-.07.58-.05,1.12-.14,1.61-.28,1.28-.35,2.28-.94,2.98-1.77.7-.83,1.19-1.75,1.46-2.77.27-1.02.41-1.98.41-2.89s-.14-1.87-.41-2.89c-.27-1.02-.75-1.94-1.46-2.77-.7-.83-1.69-1.42-2.98-1.77-.49-.14-1.03-.23-1.61-.28-.59-.05-1.12-.07-1.61-.07h-11.36v15.57ZM749.4,119.71l-9.96-20.54,9.82-1.89,10.93,22.44h-10.8Z"/>
    <path d="M778.79,119.71l-15.43-50.48h9.82l12.62,41.51,12.83-41.51h9.82l-15.43,50.48h-14.23Z"/>
    <path d="M814.4,119.71v-50.48h9.53v50.48h-9.53Z"/>
    <path d="M856.12,120.77c-5.05,0-9.4-1.1-13.06-3.3-3.66-2.2-6.48-5.27-8.45-9.22s-2.96-8.54-2.96-13.78.99-9.83,2.96-13.78c1.97-3.95,4.79-7.02,8.45-9.22,3.66-2.2,8.01-3.3,13.06-3.3,5.8,0,10.66,1.44,14.6,4.31,3.94,2.88,6.72,6.77,8.33,11.67l-9.6,2.66c-.94-3.06-2.51-5.44-4.74-7.14-2.22-1.69-5.08-2.54-8.59-2.54-3.2,0-5.87.71-8.01,2.14-2.14,1.43-3.74,3.44-4.82,6.03-1.07,2.6-1.61,5.65-1.61,9.15s.54,6.55,1.61,9.15c1.08,2.59,2.68,4.6,4.82,6.03,2.14,1.43,4.81,2.14,8.01,2.14,3.51,0,6.37-.85,8.59-2.56,2.23-1.71,3.8-4.08,4.74-7.12l9.6,2.66c-1.61,4.91-4.39,8.8-8.33,11.67-3.94,2.88-8.8,4.31-14.6,4.31Z"/>
    <path d="M887.46,119.71v-50.48h9.53v50.48h-9.53Z"/>
    <path d="M929.18,120.77c-5.05,0-9.4-1.1-13.06-3.3-3.66-2.2-6.48-5.27-8.45-9.22-1.97-3.95-2.96-8.54-2.96-13.78s.99-9.83,2.96-13.78c1.97-3.95,4.79-7.02,8.45-9.22,3.66-2.2,8.01-3.3,13.06-3.3s9.4,1.1,13.06,3.3,6.47,5.27,8.45,9.22c1.98,3.95,2.97,8.54,2.97,13.78s-.99,9.83-2.97,13.78c-1.97,3.95-4.79,7.02-8.45,9.22s-8.01,3.3-13.06,3.3ZM929.18,111.79c3.2.05,5.87-.64,7.99-2.07,2.13-1.43,3.72-3.45,4.79-6.07,1.06-2.62,1.59-5.68,1.59-9.18s-.53-6.54-1.59-9.12c-1.07-2.57-2.66-4.57-4.79-5.99-2.13-1.43-4.79-2.16-7.99-2.21-3.2-.05-5.87.64-7.99,2.07-2.12,1.43-3.72,3.45-4.78,6.07-1.07,2.62-1.6,5.68-1.6,9.19s.53,6.54,1.6,9.12c1.06,2.57,2.66,4.57,4.78,5.99,2.13,1.43,4.79,2.16,7.99,2.21Z"/>
    <path d="M979.73,120.77c-3.74,0-7.11-.66-10.11-1.98-3-1.32-5.47-3.21-7.4-5.68-1.93-2.47-3.15-5.41-3.66-8.82l9.95-1.47c.7,2.9,2.15,5.13,4.35,6.7,2.2,1.57,4.7,2.35,7.5,2.35,1.56,0,3.09-.25,4.56-.74s2.68-1.21,3.63-2.17c.95-.96,1.42-2.14,1.42-3.54,0-.51-.08-1.01-.23-1.49-.15-.48-.41-.93-.75-1.35-.35-.42-.85-.82-1.5-1.19-.64-.37-1.46-.71-2.44-1.02l-13.11-3.86c-.99-.28-2.12-.68-3.42-1.19-1.3-.52-2.55-1.25-3.77-2.21-1.22-.96-2.23-2.23-3.03-3.8-.81-1.58-1.21-3.57-1.21-5.98,0-3.39.85-6.21,2.56-8.45,1.71-2.25,3.98-3.91,6.84-5.02,2.85-1.1,6.01-1.63,9.47-1.61,3.48.05,6.59.64,9.32,1.79,2.74,1.14,5.03,2.81,6.88,5,1.84,2.19,3.18,4.86,3.99,8.01l-10.31,1.75c-.38-1.63-1.07-3.02-2.07-4.14s-2.2-1.97-3.59-2.56c-1.39-.58-2.84-.9-4.37-.95-1.5-.05-2.9.16-4.22.61-1.32.46-2.4,1.12-3.22,1.98-.83.86-1.24,1.89-1.24,3.08,0,1.1.34,1.99,1.02,2.68.68.69,1.53,1.24,2.56,1.67,1.03.42,2.08.77,3.16,1.05l8.76,2.39c1.31.35,2.76.81,4.35,1.38,1.59.57,3.12,1.37,4.58,2.39s2.66,2.35,3.61,4.01c.95,1.66,1.42,3.76,1.42,6.31,0,2.71-.57,5.08-1.7,7.1-1.14,2.02-2.66,3.69-4.58,5.01-1.92,1.32-4.09,2.31-6.5,2.96-2.42.65-4.91.98-7.49.98Z"/>
    <path d="M253.26,178.13v-45.04h27.84v3.51h-24.24v17.11h20.49v3.5h-20.49v17.42h24.24v3.5h-27.84Z"/>
    <path d="M316.42,179.07c-3.09,0-5.86-.51-8.34-1.53-2.47-1.02-4.52-2.47-6.13-4.35-1.61-1.88-2.69-4.11-3.24-6.69l3.69-.63c.77,3,2.42,5.37,4.96,7.1,2.54,1.73,5.58,2.6,9.15,2.6,2.42,0,4.56-.38,6.41-1.16,1.85-.77,3.3-1.86,4.35-3.27,1.04-1.41,1.56-3.05,1.56-4.93,0-1.35-.24-2.49-.74-3.41-.49-.92-1.12-1.67-1.89-2.27-.77-.59-1.6-1.07-2.47-1.44-.88-.36-1.7-.66-2.47-.89l-11.32-3.38c-1.5-.44-2.84-.99-4.02-1.64-1.18-.66-2.17-1.42-2.97-2.28-.8-.87-1.42-1.85-1.85-2.96s-.64-2.33-.64-3.69c0-2.42.65-4.54,1.94-6.35,1.29-1.81,3.07-3.23,5.34-4.24,2.26-1.01,4.86-1.52,7.8-1.52,2.96.02,5.62.57,7.97,1.64,2.36,1.07,4.29,2.59,5.8,4.55,1.51,1.96,2.48,4.28,2.92,6.97l-3.72.66c-.29-2.06-1.04-3.87-2.24-5.41-1.2-1.54-2.73-2.74-4.58-3.6-1.86-.86-3.92-1.28-6.2-1.28-2.19-.02-4.12.34-5.8,1.09-1.68.75-3,1.76-3.96,3.03-.96,1.27-1.44,2.71-1.44,4.32s.45,3,1.36,3.99c.91.99,2.02,1.77,3.35,2.33,1.32.56,2.59,1.02,3.8,1.38l9.07,2.69c.86.25,1.87.6,3.06,1.06,1.19.46,2.36,1.11,3.5,1.95,1.15.85,2.1,1.96,2.86,3.35.76,1.39,1.14,3.12,1.14,5.21s-.38,3.84-1.16,5.44c-.77,1.61-1.88,2.97-3.31,4.08-1.44,1.11-3.14,1.97-5.1,2.56-1.96.6-4.12.89-6.47.89Z"/>
    <path d="M351.32,178.13v-45.04h16.98c.44,0,.91.02,1.43.05.51.03,1.05.1,1.61.2,2.26.35,4.19,1.16,5.8,2.42s2.85,2.85,3.71,4.76c.86,1.91,1.28,4.01,1.28,6.3s-.43,4.42-1.28,6.33-2.09,3.49-3.71,4.76c-1.61,1.26-3.55,2.07-5.8,2.42-.56.08-1.1.15-1.61.19-.51.04-.99.06-1.43.06h-13.38v17.55h-3.6ZM354.92,157.05h13.32c.38,0,.81-.02,1.3-.06.49-.04.99-.1,1.49-.19,1.62-.33,2.98-1,4.07-1.99,1.08-.99,1.89-2.18,2.44-3.58.54-1.39.81-2.87.81-4.41s-.27-3.01-.81-4.4c-.54-1.38-1.35-2.57-2.44-3.57-1.08-.99-2.44-1.65-4.07-1.99-.5-.1-1-.18-1.49-.22-.49-.04-.92-.06-1.3-.06h-13.32v20.46Z"/>
    <path d="M400.9,178.13v-45.04h27.84v3.51h-24.24v17.11h20.49v3.5h-20.49v17.42h24.24v3.5h-27.84Z"/>
    <path d="M466.75,179.07c-4.49,0-8.25-1-11.29-2.99-3.04-1.99-5.34-4.75-6.88-8.27-1.54-3.52-2.31-7.59-2.31-12.2s.77-8.68,2.31-12.2c1.54-3.52,3.84-6.28,6.88-8.27,3.04-1.99,6.81-2.99,11.29-2.99,5.23,0,9.48,1.35,12.75,4.07,3.26,2.71,5.48,6.34,6.64,10.88l-3.72.91c-.96-3.78-2.75-6.77-5.37-8.99-2.62-2.22-6.05-3.33-10.3-3.33-3.69,0-6.76.85-9.21,2.54-2.45,1.69-4.3,4.03-5.54,7.04-1.24,3-1.87,6.46-1.89,10.36-.04,3.9.56,7.34,1.8,10.34,1.24,2.99,3.1,5.34,5.58,7.04,2.48,1.7,5.57,2.55,9.26,2.55,4.26,0,7.69-1.11,10.3-3.35,2.62-2.23,4.41-5.22,5.37-8.98l3.72.91c-1.17,4.55-3.38,8.17-6.64,10.88s-7.51,4.07-12.75,4.07Z"/>
    <path d="M506.16,178.13v-45.04h3.6v45.04h-3.6Z"/>
    <path d="M528.53,178.13l15.95-45.04h4.48l15.95,45.04h-3.81l-15.33-43.17h1.81l-15.23,43.17h-3.81ZM535.12,166.81v-3.41h23.15v3.41h-23.15Z"/>
    <path d="M583.67,178.13v-45.04h3.6v41.54h21.89v3.5h-25.49Z"/>
    <path d="M624.49,178.13v-45.04h3.6v45.04h-3.6Z"/>
    <path d="M648.73,178.13v-.97l25.4-40.57h-25.08v-3.51h30.81v1.06l-25.28,40.51h25.18v3.47h-31.03Z"/>
    <path d="M696.75,178.13l15.95-45.04h4.48l15.95,45.04h-3.81l-15.33-43.17h1.81l-15.23,43.17h-3.81ZM703.35,166.81v-3.41h23.15v3.41h-23.15Z"/>
    <path d="M751.26,178.13v-45.04h13.42c.52,0,1.37.01,2.55.03,1.18.02,2.3.11,3.36.28,3.38.46,6.19,1.73,8.42,3.8,2.23,2.07,3.9,4.7,5,7.88,1.1,3.18,1.66,6.69,1.66,10.53s-.55,7.38-1.66,10.56c-1.1,3.18-2.77,5.8-5,7.87-2.23,2.06-5.04,3.33-8.42,3.79-1.06.15-2.19.23-3.39.27-1.2.03-2.04.05-2.52.05h-13.42ZM755.05,174.59h9.63c.94,0,1.91-.03,2.91-.08,1-.05,1.86-.14,2.57-.27,2.8-.5,5.05-1.61,6.76-3.33,1.71-1.72,2.96-3.9,3.74-6.54.78-2.64,1.18-5.56,1.18-8.77s-.4-6.17-1.19-8.81c-.79-2.64-2.04-4.82-3.75-6.54-1.71-1.72-3.95-2.82-6.73-3.3-.71-.12-1.58-.21-2.61-.26-1.03-.05-1.99-.08-2.86-.08h-9.63v37.97Z"/>
    <path d="M823.14,179.07c-4.49,0-8.25-1-11.29-2.99-3.04-1.99-5.34-4.75-6.88-8.27-1.54-3.52-2.31-7.59-2.31-12.2s.77-8.68,2.31-12.2c1.54-3.52,3.84-6.28,6.88-8.27,3.04-1.99,6.81-2.99,11.29-2.99s8.24,1,11.28,2.99c3.03,1.99,5.32,4.75,6.86,8.27,1.55,3.53,2.32,7.59,2.32,12.2s-.77,8.68-2.32,12.2c-1.54,3.52-3.83,6.28-6.86,8.27-3.03,1.99-6.79,2.99-11.28,2.99ZM823.14,175.53c3.69.02,6.77-.82,9.23-2.52,2.46-1.7,4.31-4.05,5.54-7.05,1.23-3,1.84-6.45,1.84-10.35s-.61-7.35-1.84-10.36c-1.23-3-3.08-5.35-5.54-7.04-2.46-1.69-5.53-2.54-9.23-2.54-3.69-.02-6.76.81-9.21,2.5-2.45,1.69-4.29,4.04-5.52,7.05-1.23,3.01-1.86,6.47-1.91,10.37-.04,3.9.56,7.34,1.8,10.34,1.24,2.99,3.1,5.34,5.58,7.04,2.48,1.7,5.57,2.55,9.26,2.55Z"/>
    <path d="M877.67,179.07c-3.09,0-5.86-.51-8.34-1.53-2.47-1.02-4.52-2.47-6.13-4.35-1.61-1.88-2.69-4.11-3.24-6.69l3.69-.63c.77,3,2.42,5.37,4.96,7.1,2.54,1.73,5.58,2.6,9.15,2.6,2.42,0,4.56-.38,6.41-1.16,1.85-.77,3.3-1.86,4.35-3.27,1.04-1.41,1.56-3.05,1.56-4.93,0-1.35-.24-2.49-.74-3.41-.49-.92-1.12-1.67-1.89-2.27-.77-.59-1.6-1.07-2.47-1.44s-1.7-.66-2.47-.89l-11.32-3.38c-1.5-.44-2.84-.99-4.02-1.64-1.18-.66-2.17-1.42-2.97-2.28-.8-.87-1.42-1.85-1.85-2.96-.43-1.1-.64-2.33-.64-3.69,0-2.42.65-4.54,1.94-6.35,1.29-1.81,3.07-3.23,5.34-4.24,2.26-1.01,4.86-1.52,7.8-1.52,2.96.02,5.62.57,7.97,1.64,2.36,1.07,4.29,2.59,5.8,4.55,1.51,1.96,2.48,4.28,2.92,6.97l-3.72.66c-.29-2.06-1.04-3.87-2.24-5.41-1.2-1.54-2.73-2.74-4.58-3.6-1.86-.86-3.92-1.28-6.2-1.28-2.19-.02-4.12.34-5.8,1.09-1.68.75-3,1.76-3.96,3.03-.96,1.27-1.44,2.71-1.44,4.32s.45,3,1.36,3.99c.91.99,2.02,1.77,3.35,2.33,1.32.56,2.59,1.02,3.8,1.38l9.07,2.69c.86.25,1.87.6,3.06,1.06,1.19.46,2.36,1.11,3.5,1.95,1.15.85,2.1,1.96,2.86,3.35.76,1.39,1.14,3.12,1.14,5.21s-.38,3.84-1.16,5.44c-.77,1.61-1.88,2.97-3.31,4.08-1.44,1.11-3.14,1.97-5.1,2.56-1.96.6-4.12.89-6.47.89Z"/>
    <path d="M921.96,178.13l15.95-45.04h4.48l15.95,45.04h-3.81l-15.33-43.17h1.81l-15.23,43.17h-3.81ZM928.56,166.81v-3.41h23.15v3.41h-23.15Z"/>
    <path d="M980.61,179.07c-3.28,0-6.18-.57-8.72-1.69-2.53-1.13-4.66-2.72-6.39-4.79-1.73-2.06-3.04-4.54-3.94-7.41-.9-2.88-1.34-6.07-1.34-9.57,0-4.65.78-8.73,2.36-12.25,1.57-3.51,3.87-6.25,6.89-8.21,3.02-1.96,6.74-2.94,11.14-2.94s8.28,1.06,11.21,3.19c2.93,2.13,4.99,4.92,6.18,8.38l-3.57,1.09c-1.04-2.77-2.73-4.99-5.08-6.65-2.35-1.66-5.23-2.5-8.65-2.52-3.69,0-6.76.84-9.21,2.52-2.45,1.68-4.29,4.02-5.52,7.02-1.23,3-1.86,6.46-1.91,10.36-.04,3.9.56,7.34,1.8,10.34,1.24,2.99,3.1,5.34,5.58,7.04,2.48,1.7,5.57,2.55,9.26,2.55,3.52.02,6.4-.67,8.65-2.06,2.24-1.4,3.91-3.36,5-5.9,1.09-2.54,1.69-5.5,1.77-8.9h-11.2v-3.28h14.95c.07.52.1,1.03.11,1.53.01.5.02.89.02,1.16,0,3.98-.69,7.56-2.08,10.73-1.38,3.17-3.51,5.67-6.38,7.51-2.87,1.84-6.51,2.75-10.93,2.75Z"/>
  </g>
</svg>