<?xml version="1.0" encoding="UTF-8"?>
<svg id="Capa_1" xmlns="http://www.w3.org/2000/svg" viewBox="0 0 1000 263">
  <defs>
    <style>
      .cls-1 {
        fill: #2464a3;
      }
    </style>
  </defs>
  <g>
    <path d="M355.08,259.93V112.7h96.11v25.97h-68.3v31.49h56.03v25.97h-56.03v37.83h68.3v25.97h-96.11Z"/>
    <path d="M531.36,263c-10.9,0-20.74-1.93-29.49-5.78-8.76-3.85-15.95-9.37-21.58-16.57-5.62-7.19-9.19-15.76-10.69-25.71l29.04-4.3c2.04,8.45,6.27,14.97,12.68,19.53,6.41,4.57,13.71,6.85,21.88,6.85,4.57,0,9-.72,13.29-2.15,4.3-1.43,7.82-3.54,10.58-6.34,2.76-2.79,4.14-6.24,4.14-10.33,0-1.5-.22-2.95-.67-4.35-.45-1.4-1.18-2.71-2.2-3.94-1.02-1.23-2.48-2.39-4.35-3.48-1.88-1.09-4.25-2.08-7.11-2.96l-38.24-11.25c-2.86-.82-6.19-1.98-9.97-3.48-3.78-1.5-7.45-3.64-10.99-6.44-3.54-2.79-6.49-6.49-8.84-11.09-2.36-4.6-3.53-10.41-3.53-17.43,0-9.88,2.49-18.1,7.46-24.64,4.97-6.54,11.62-11.42,19.94-14.62,8.31-3.2,17.52-4.77,27.61-4.7,10.16.14,19.22,1.88,27.2,5.21,7.98,3.34,14.65,8.2,20.04,14.57,5.38,6.37,9.27,14.16,11.66,23.36l-30.06,5.11c-1.09-4.77-3.1-8.79-6.04-12.06-2.93-3.27-6.42-5.76-10.48-7.46-4.06-1.7-8.3-2.63-12.73-2.76-4.36-.14-8.47.46-12.32,1.79-3.85,1.33-6.99,3.26-9.41,5.78-2.42,2.52-3.63,5.52-3.63,9,0,3.2.99,5.81,2.96,7.82,1.98,2.01,4.47,3.63,7.47,4.86,3,1.23,6.06,2.25,9.2,3.07l25.56,6.95c3.82,1.02,8.04,2.37,12.68,4.04,4.63,1.67,9.08,3.99,13.34,6.95,4.26,2.97,7.77,6.87,10.53,11.71,2.76,4.84,4.14,10.97,4.14,18.41,0,7.91-1.66,14.81-4.96,20.71-3.3,5.9-7.75,10.77-13.34,14.62-5.59,3.85-11.91,6.73-18.97,8.64-7.06,1.91-14.33,2.86-21.83,2.86Z"/>
    <path d="M612.95,259.93V112.7h96.11v25.97h-68.3v31.49h56.03v25.97h-56.03v37.83h68.3v25.97h-96.11Z"/>
    <path d="M723.37,259.93l44.99-147.24h41.52l44.99,147.24h-28.63l-40.08-129.86h5.32l-39.47,129.86h-28.63ZM750.37,229.26v-25.97h77.71v25.97h-77.71Z"/>
    <path d="M930.54,263c-9.27,0-18.1-1.65-26.49-4.96-8.38-3.31-15.8-8.2-22.24-14.67-6.44-6.47-11.52-14.48-15.24-24.03-3.71-9.54-5.57-20.55-5.57-33.03,0-16.29,3.12-30.15,9.36-41.56,6.24-11.42,14.62-20.13,25.15-26.13,10.53-6,22.21-9,35.02-9,18.95,0,33.85,4.4,44.68,13.19,10.84,8.79,18.09,21.23,21.77,37.32l-28.42,4.09c-2.66-8.59-7.01-15.46-13.04-20.61-6.03-5.14-13.75-7.75-23.16-7.82-9.34-.14-17.11,1.88-23.31,6.03-6.2,4.16-10.85,10.06-13.96,17.69-3.1,7.64-4.65,16.57-4.65,26.79s1.55,19.09,4.65,26.58c3.1,7.5,7.75,13.33,13.96,17.49,6.2,4.16,13.97,6.31,23.31,6.44,6.34.14,12.08-.95,17.23-3.27,5.15-2.31,9.49-5.96,13.04-10.94,3.54-4.97,6.06-11.35,7.57-19.12h-23.32v-21.47h52.97c.13.89.23,2.46.31,4.7.07,2.25.1,3.54.1,3.88,0,14.11-2.87,26.62-8.59,37.53-5.72,10.91-13.8,19.45-24.23,25.62-10.43,6.17-22.73,9.25-36.91,9.25Z"/>
  </g>
  <g>
    <polygon class="cls-1" points="32.95 259.11 -.27 259.11 149.32 0 232.44 143.93 199.19 143.93 149.32 57.56 32.95 259.11"/>
    <polygon class="cls-1" points="149.32 115.18 66.2 259.11 298.94 259.11 249.05 172.72 182.57 172.72 165.96 201.52 232.44 201.55 249.05 230.31 116.09 230.31 165.93 143.93 149.32 115.18"/>
  </g>
</svg>