<svg xmlns="http://www.w3.org/2000/svg" viewBox="0 0 220 48" role="img" aria-label="Vision Engineering">
  <g fill="#0067b1">
    <path d="M24 8C12.95 8 4 16.95 4 28s8.95 20 20 20 20-8.95 20-20S35.05 8 24 8zm0 34c-7.72 0-14-6.28-14-14s6.28-14 14-14 14 6.28 14 14-6.28 14-14 14z"/>
    <circle cx="24" cy="28" r="7"/>
    <path d="M58 14h10.2l14.8 34H72.8l-2.4-6H56.4l-2.4 6H44l14-34zm8.2 20.4-4.8-12-4.8 12h9.6zM88.4 48V14h8.8v34H88.4zm18.2 0V14h8.4l12.2 18.6V14h8.4v34h-8.4L123 29.2V48h-8.4zm38.8 0V14h13.6c6.8 0 11.4 3.6 11.4 9.2 0 3.4-1.8 6.2-4.8 7.6l6.2 17.2h-9.6l-5.2-15.2h-4.2V48h-8.4zm8.4-20.4h5.8c2.4 0 3.8-1.2 3.8-3.2s-1.4-3.2-3.8-3.2h-5.8v6.4z"/>
  </g>
</svg>
